<svg xmlns="http://www.w3.org/2000/svg" viewBox="0 0 28.26 30.01"><defs><style>.cls-1{fill:#39b3a2;}.cls-2{fill:#44546a;}</style></defs><g id="Layer_2" data-name="Layer 2"><g id="Layer_1-2" data-name="Layer 1"><path class="cls-1" d="M14,4.36a4.32,4.32,0,1,0,4.32,4.31A4.31,4.31,0,0,0,14,4.36Zm0,7.39a3.12,3.12,0,1,1,3.12-3.12A3.11,3.11,0,0,1,14,11.75Z"/><path class="cls-2" d="M14,0a8.69,8.69,0,0,0-8.7,8.7A8.6,8.6,0,0,0,6.7,13.36l5.71,9.92a2,2,0,0,0,.12.19h0a1.81,1.81,0,0,0,3,0h0l.06-.11a.1.1,0,0,0,0-.05l5.71-9.92A8.69,8.69,0,0,0,14,0Zm6.41,13-5.58,9.61h0a.93.93,0,0,1-.83.51,1,1,0,0,1-.83-.51h0L7.63,13h0a7.61,7.61,0,1,1,12.82,0Z"/><path class="cls-2" d="M19.81,18.25l-.58,1c4.62.77,7.85,2.56,7.85,4.65,0,2.8-5.79,5.07-12.94,5.07S1.2,26.69,1.2,23.89c0-2.09,3.25-3.89,7.88-4.66l-.55-1C3.51,19.18,0,21.35,0,23.87,0,27.26,6.33,30,14.13,30s14.13-2.75,14.13-6.14C28.26,21.36,24.79,19.2,19.81,18.25Z"/><path class="cls-1" d="M18.26,20.85l-.5.85c1.63.4,2.69,1.05,2.69,1.78,0,1.2-2.84,2.18-6.35,2.18s-6.35-1-6.35-2.18c0-.74,1.07-1.39,2.71-1.78L10,20.84c-2.06.56-3.43,1.54-3.43,2.65,0,1.75,3.38,3.16,7.55,3.16s7.55-1.41,7.55-3.16C21.65,22.39,20.3,21.42,18.26,20.85Z"/></g></g></svg>
