<svg xmlns="http://www.w3.org/2000/svg" viewBox="0 0 233.96 241.89"><defs><style>.cls-1{fill:#39b3a2;}.cls-2{fill:#44546a;}</style></defs><g id="Layer_2" data-name="Layer 2"><g id="Layer_1-2" data-name="Layer 1"><path class="cls-1" d="M216.72,32.73H17.65a2.5,2.5,0,0,0,0,5H216.72a2.5,2.5,0,0,0,0-5Z"/><path class="cls-2" d="M226.57,0H7.38A7.39,7.39,0,0,0,0,7.38V36.9a9,9,0,0,0,2.58,6.3l84.78,75.22a5.29,5.29,0,0,1,1.51,3.69v72.61a5,5,0,0,0,1.69,3.75l47.77,42.32a4.32,4.32,0,0,0,7.18-3.23V121.82a5.25,5.25,0,0,1,1.51-3.69L231.38,43.3A9,9,0,0,0,234,37V7.38A7.39,7.39,0,0,0,226.57,0Zm2.52,34.51a8,8,0,0,1-2.27,5.59l-84,75.45a8,8,0,0,0-2.26,5.61l.34,112.56a1.18,1.18,0,0,1-2,.9l-43-37.77a4.94,4.94,0,0,1-1.67-3.66l-.34-72a8,8,0,0,0-2.28-5.56L6.81,40a8,8,0,0,1-2.29-5.61V9.85A4.85,4.85,0,0,1,9.37,5H224.24a4.85,4.85,0,0,1,4.85,4.85Z"/></g></g></svg>