<svg xmlns="http://www.w3.org/2000/svg" width="42.877" height="25.654" viewBox="0 0 42.877 25.654">
  <path id="Path_57" data-name="Path 57" d="M325.065,392.2h-1.173V386.1c0-3.158-3.339-3.339-3.339-3.339H309.032s-2.576.017-2.576,1.518c0-1.518-2.478-1.518-2.478-1.518H292.337c-3.188,0-3.188,3.309-3.188,3.309V392.2s0,.128-2.158.128a2.339,2.339,0,0,0-2.278,2.278v11.051a2.748,2.748,0,0,0,2.742,2.752h38.06a2.084,2.084,0,0,0,2.075-2.075V394.729C327.589,392.442,325.065,392.2,325.065,392.2Zm-17.835-6.567A1.8,1.8,0,0,1,309.067,384h11.565a2.085,2.085,0,0,1,2.093,1.868c0,.044,0,.5-.005.544v11.775a1.992,1.992,0,0,1-1.957,1.706c-1.616,0-10.939-.05-10.939-.05s-2.594.2-2.594-1.531Zm-16.795.063A1.848,1.848,0,0,1,292.252,384h11.59a1.905,1.905,0,0,1,2.037,1.634v12.549a1.9,1.9,0,0,1-1.772,1.706h-11.9a1.754,1.754,0,0,1-1.765-1.545V398.3s-.009-11.2-.009-12.607Zm35.777,9.208v11.133a1.016,1.016,0,0,1-.943,1.086,1.141,1.141,0,0,1-.143,0H287.381a1.342,1.342,0,0,1-1.331-1.331V395.18a1.47,1.47,0,0,1,1.333-1.594,1.423,1.423,0,0,1,.261,0h1.444s-.052,5.479-.052,6.462a.964.964,0,0,0,.942.984h33.047a.914.914,0,0,0,.91-.911v-6.478h1.008a1.194,1.194,0,0,1,1.266,1.117,1.226,1.226,0,0,1,0,.149Z" transform="translate(-284.713 -382.757)" fill="#37b3a2"/>
</svg>
