<svg xmlns="http://www.w3.org/2000/svg" viewBox="0 0 30.01 30.01"><defs><style>.cls-1{fill:#44546a;}</style></defs><g id="Layer_2" data-name="Layer 2"><g id="Layer_1-2" data-name="Layer 1"><path class="cls-1" d="M29.85,17.12A14.79,14.79,0,0,0,30,15a15,15,0,0,0-.14-2l-3.44-.82a11.82,11.82,0,0,0-1.26-3.07l1.89-3a15.29,15.29,0,0,0-2.9-2.95L21.11,5a11.73,11.73,0,0,0-3.22-1.34L17.07.14a15.37,15.37,0,0,0-4.14,0l-.82,3.48A12,12,0,0,0,9,4.88L6,3A15.24,15.24,0,0,0,3.08,5.9l1.84,3a11.75,11.75,0,0,0-1.35,3.22L.14,13a15,15,0,0,0,0,4.16l3.42.81A11.7,11.7,0,0,0,4.84,21L3,24a15.27,15.27,0,0,0,2.94,3l3-1.81a11.56,11.56,0,0,0,3.21,1.35l.81,3.38A15.79,15.79,0,0,0,15,30a15.94,15.94,0,0,0,2.09-.15l.81-3.38A11.84,11.84,0,0,0,21,25.21l3,1.85a14.73,14.73,0,0,0,3-2.92l-1.81-3a11.54,11.54,0,0,0,1.34-3.21ZM22.48,15a7.42,7.42,0,1,1-7.42-7.42A7.42,7.42,0,0,1,22.48,15Z"/></g></g></svg>