<svg xmlns="http://www.w3.org/2000/svg" viewBox="0 0 30.01 30.01"><defs><style>.cls-1{fill:#39b3a2;}.cls-2{fill:#44546a;}</style></defs><g id="Layer_2" data-name="Layer 2"><g id="Layer_1-2" data-name="Layer 1"><path class="cls-1" d="M15.06,7.59A7.42,7.42,0,1,0,22.48,15,7.42,7.42,0,0,0,15.06,7.59ZM15,21.22A6.22,6.22,0,1,1,21.22,15,6.21,6.21,0,0,1,15,21.22Z"/><path class="cls-2" d="M29.85,17.12A14.79,14.79,0,0,0,30,15a15,15,0,0,0-.14-2l-3.44-.82a11.82,11.82,0,0,0-1.26-3.07l1.89-3a15.29,15.29,0,0,0-2.9-2.95L21.11,5a11.73,11.73,0,0,0-3.22-1.34L17.07.14a15.37,15.37,0,0,0-4.14,0l-.82,3.48A12.17,12.17,0,0,0,9,4.88L6,3A15.24,15.24,0,0,0,3.08,5.9l1.84,3a11.75,11.75,0,0,0-1.35,3.22L.14,13a15,15,0,0,0,0,4.16l3.42.81A11.7,11.7,0,0,0,4.84,21L3,24a15.27,15.27,0,0,0,2.94,3l3-1.81a11.56,11.56,0,0,0,3.21,1.35l.81,3.38A15.79,15.79,0,0,0,15,30a15.94,15.94,0,0,0,2.09-.15l.81-3.38A11.84,11.84,0,0,0,21,25.21l3,1.85a14.73,14.73,0,0,0,3-2.92l-1.81-3a11.54,11.54,0,0,0,1.34-3.21ZM23.7,21,25.51,24A14.18,14.18,0,0,1,24,25.5L21,23.71a10.33,10.33,0,0,1-4.12,1.72l-.8,3.33c-.36,0-.73,0-1.1,0s-.73,0-1.09,0l-.8-3.32A10.6,10.6,0,0,1,9,23.71l-2.93,1.8A15.12,15.12,0,0,1,4.5,24l1.81-3a10.4,10.4,0,0,1-1.65-4.08L1.24,16.1c0-.36,0-.73,0-1.1s0-.73,0-1.09l3.45-.83a10.48,10.48,0,0,1,1.68-4L4.5,6.05A13.35,13.35,0,0,1,6.05,4.5L9.13,6.39a10.37,10.37,0,0,1,3.92-1.61l.86-3.54c.36,0,.72,0,1.09,0s.73,0,1.09,0L17,4.78a10.21,10.21,0,0,1,3.92,1.61L24,4.5A12.61,12.61,0,0,1,25.5,6.05L23.63,9.11a10.26,10.26,0,0,1,1.68,4l3.45.83c0,.36,0,.72,0,1.09s0,.73,0,1.09l-3.41.83A10.46,10.46,0,0,1,23.7,21Z"/></g></g></svg>
