<?xml version="1.0"?>
<svg xmlns="http://www.w3.org/2000/svg" xmlns:xlink="http://www.w3.org/1999/xlink" version="1.1" id="Capa_1" x="0px" y="0px" viewBox="0 0 511.999 511.999" style="enable-background:new 0 0 511.999 511.999;" xml:space="preserve" width="512px" height="512px" class=""><g><g>
	<g>
		<path d="M476.766,154.868L264.74,2.811c-5.241-3.748-12.239-3.748-17.481,0L35.233,154.868c-8.389,6.019-8.288,18.526,0.117,24.45    l212.026,149.057c5.183,3.631,12.064,3.631,17.247,0l212.026-149.057C485.054,173.394,485.155,160.887,476.766,154.868z" data-original="#000000" class="active-path" data-old_color="#000000" fill="#D5D5D5"/>
	</g>
</g><g>
	<g>
		<path d="M476.766,246.819l-20.374-14.609L264.623,367.02c-5.183,3.631-12.064,3.631-17.247,0L55.607,232.21l-20.374,14.609    c-8.389,6.019-8.288,18.526,0.117,24.45l212.026,149.057c5.183,3.631,12.064,3.631,17.247,0l212.026-149.057    C485.054,265.346,485.155,252.838,476.766,246.819z" data-original="#000000" class="active-path" data-old_color="#000000" fill="#D5D5D5"/>
	</g>
</g><g>
	<g>
		<path d="M476.765,338.771l-20.373-14.609L264.623,458.971c-5.183,3.631-12.064,3.631-17.247,0L55.607,324.161l-20.374,14.609    c-8.388,6.005-8.327,18.618,0.234,24.523l212.026,146.055c5.11,3.533,11.902,3.533,17.012,0l212.026-146.055    C485.092,357.389,485.153,344.774,476.765,338.771z" data-original="#000000" class="active-path" data-old_color="#000000" fill="#D5D5D5"/>
	</g>
</g></g> </svg>
