<svg xmlns="http://www.w3.org/2000/svg" viewBox="0 0 200 193.09"><defs><style>.cls-1{fill:#7c95a5;}.cls-2{fill:#37b3a2;}.cls-3{fill:#44546a;}</style></defs><g id="Layer_2" data-name="Layer 2"><g id="Layer_1-2" data-name="Layer 1"><g id="Group_20" data-name="Group 20"><g id="Group_19" data-name="Group 19"><path id="Path_3" data-name="Path 3" class="cls-1" d="M96.83,147.78H52.08a4,4,0,0,1-4-4h0V4.05a4.05,4.05,0,0,1,4-4H96.83a4,4,0,0,1,4,4.05V143.73a4.06,4.06,0,0,1-4,4.06h0"/><path id="Path_4" data-name="Path 4" class="cls-1" d="M195.94,147.78H151.27a4.06,4.06,0,0,1-4.06-4.06V4.07A4.06,4.06,0,0,1,151.27,0h44.67A4.07,4.07,0,0,1,200,4.07V143.72a4.07,4.07,0,0,1-4.07,4.06h0"/><path id="Path_5" data-name="Path 5" class="cls-2" d="M134.18,103.46H113.91a4.05,4.05,0,0,1-4-4V4.05a4.05,4.05,0,0,1,4-4h20.28a4,4,0,0,1,4,4h0V99.42a4,4,0,0,1-4,4h0"/><path id="Path_6" data-name="Path 6" class="cls-3" d="M0,21.12V189a4.06,4.06,0,0,0,4.06,4.06H180a20,20,0,0,0,20-20h0V161.13a4,4,0,0,0-4-4H42.57A4.06,4.06,0,0,1,38.51,153V4.07A4.07,4.07,0,0,0,34.44,0H21.12A21.13,21.13,0,0,0,0,21.12"/></g></g></g></g></svg>