<svg xmlns="http://www.w3.org/2000/svg" viewBox="0 0 29.51 30"><defs><style>.cls-1{fill:#39b3a2;}.cls-2{fill:#44546a;}</style></defs><g id="Layer_2" data-name="Layer 2"><g id="Layer_1-2" data-name="Layer 1"><path class="cls-1" d="M14.7,13.46A4.48,4.48,0,1,0,10.22,9,4.47,4.47,0,0,0,14.7,13.46Zm0-7.75A3.24,3.24,0,1,1,11.46,9,3.24,3.24,0,0,1,14.7,5.71Z"/><path class="cls-2" d="M29.46,29.36l-4.75-9.7a.45.45,0,0,0-.4-.25H19.1l3.19-5.53a9,9,0,1,0-15.2,0l3.2,5.56h-5a.44.44,0,0,0-.4.25L.05,29.35a.45.45,0,0,0,.4.65H29.06A.44.44,0,0,0,29.46,29.36ZM6.81,9.18a7.89,7.89,0,1,1,14.53,4.25h0l-5.78,10h0a1,1,0,0,1-1.72,0h0l-5.79-10h0A7.92,7.92,0,0,1,6.81,9.18ZM27,28.8H2.48a.44.44,0,0,1-.4-.64l3.48-7.3a.45.45,0,0,1,.4-.25H10.8a.54.54,0,0,1,.22.05l2,3.47.12.2h0a1.89,1.89,0,0,0,3.13,0h0l.06-.11,0-.06,2.05-3.55h5.16a.44.44,0,0,1,.4.26l3.44,7.29A.45.45,0,0,1,27,28.8Z"/></g></g></svg>
