<svg xmlns="http://www.w3.org/2000/svg" viewBox="0 0 21.5 30"><defs><style>.cls-1{fill:#39b3a2;}.cls-2{fill:#44546a;}</style></defs><g id="Layer_2" data-name="Layer 2"><g id="Layer_1-2" data-name="Layer 1"><path class="cls-1" d="M10.75,5.38a5.34,5.34,0,1,0,5.34,5.34A5.33,5.33,0,0,0,10.75,5.38Zm0,9.47a4.14,4.14,0,1,1,4.14-4.13A4.13,4.13,0,0,1,10.75,14.85Z"/><path class="cls-2" d="M10.75,0A10.74,10.74,0,0,0,1.68,16.51L8.74,28.76a2.55,2.55,0,0,0,.14.24h0a2.26,2.26,0,0,0,3.74,0h0l.08-.14,0-.06L19.8,16.55A10.75,10.75,0,0,0,10.75,0Zm8.13,16.05L11.81,28.24h0a1.2,1.2,0,0,1-2.12,0h0L2.62,16.05h0a9.65,9.65,0,1,1,17.78-5.2,9.53,9.53,0,0,1-1.53,5.2Z"/></g></g></svg>
