<svg xmlns="http://www.w3.org/2000/svg" viewBox="0 0 29.72 29.86"><defs><style>.cls-1{fill:#39b3a2;}.cls-2{fill:#44546a;}</style></defs><g id="Layer_2" data-name="Layer 2"><g id="Layer_1-2" data-name="Layer 1"><path class="cls-1" d="M25.87,5.15A15.93,15.93,0,0,0,14,0a.6.6,0,0,0-.6.6.59.59,0,0,0,.6.59s6.78.25,10.7,4.83a15.61,15.61,0,0,1,3.81,9.62.6.6,0,1,0,1.2,0S29.8,9.47,25.87,5.15Z"/><path class="cls-1" d="M23.12,7.82a11.15,11.15,0,0,0-9.11-4A.6.6,0,1,0,14,5a10.45,10.45,0,0,1,7.54,3.17c2.94,2.64,3.2,7.5,3.2,7.5a.59.59,0,0,0,.59.6.6.6,0,0,0,.6-.6A10.78,10.78,0,0,0,23.12,7.82Z"/><path class="cls-1" d="M20.14,10.17A8.46,8.46,0,0,0,14,7.55a.6.6,0,0,0,0,1.2,7,7,0,0,1,4.91,1.93c1.76,1.56,2,5,2,5a.6.6,0,1,0,1.2,0A7.74,7.74,0,0,0,20.14,10.17Z"/><path class="cls-2" d="M26.86,23.08c-1.13-.64-6.67-2.84-6.67-2.84a1.82,1.82,0,0,0-2.08.39c-1.06,1.08-1.79,1.79-1.79,1.79s-.5.54-1.48-.06A40.92,40.92,0,0,1,10.47,19c-.75-.74-4.24-4.47-3.09-5.59l1.8-1.75a1.58,1.58,0,0,0,.39-1.9C9.08,8.47,7,3.37,7,3.37s-.41-.8-1.1-.74c0,0-4.83,0-5.67,4.28s.08,8.55,4.89,14.23S15.79,29.61,20,29.85a6.64,6.64,0,0,0,6-2.51S28,23.71,26.86,23.08ZM25,26.42a.47.47,0,0,1-.09.12,6.74,6.74,0,0,1-5.82,1.92c-3.22-.47-8.6-3.1-12.88-8.28S.68,11.59,1.43,7.71s3.81-3.9,3.81-3.9c.61-.05,1,.68,1,.68s1.66,3.92,2,5.08A1.6,1.6,0,0,1,7.9,11.3,9.07,9.07,0,0,0,6,13.1c-1.09,1.38,2.32,5.39,3.59,6.66a28.48,28.48,0,0,0,5.23,3.91,1.47,1.47,0,0,0,1.62-.11A13.7,13.7,0,0,0,18.16,22,1.68,1.68,0,0,1,20,21.56s4.36,1.65,5.35,2.22S25.22,26,25,26.42Z"/></g></g></svg>
