<svg xmlns="http://www.w3.org/2000/svg" width="26.991" height="27.045" viewBox="0 0 26.991 27.045">
  <path id="Path_55" data-name="Path 55" d="M451.166,341.783H428.892a2.261,2.261,0,0,0-2.261,2.261v22.69a2.094,2.094,0,0,0,2.094,2.094h21.224a.852.852,0,0,0,.6-.25l2.669-2.669a1.368,1.368,0,0,0,.4-.967v-20.7A2.455,2.455,0,0,0,451.166,341.783Zm-18.353,1.68h14.675V354.6a.509.509,0,0,1-.5.517H433.314a.51.51,0,0,1-.5-.517Zm11.179,23.72h-7.683v-3.726a.549.549,0,0,1,.529-.567h6.626a.549.549,0,0,1,.529.567Zm8.054-2.795a.928.928,0,0,1-.271.655l-1.894,1.9a.823.823,0,0,1-.582.241h-3.8v-4.446a1.335,1.335,0,0,0-1.335-1.335h-8.148a1.176,1.176,0,0,0-1.176,1.176v4.605h-5.671a.881.881,0,0,1-.88-.882V344.344a.88.88,0,0,1,.879-.881h2.168v12.023a1.343,1.343,0,0,0,1.343,1.343h14.9a1.462,1.462,0,0,0,1.462-1.462v-11.9h2.094a.914.914,0,0,1,.913.914Z" transform="translate(-426.631 -341.783)" fill="#37b3a2"/>
</svg>
