<svg xmlns="http://www.w3.org/2000/svg" viewBox="0 0 29.95 30"><defs><style>.cls-1{fill:#39b3a2;}.cls-2{fill:#44546a;}</style></defs><g id="Layer_2" data-name="Layer 2"><g id="Layer_1-2" data-name="Layer 1"><path class="cls-1" d="M11.59,4.26a7.34,7.34,0,1,0,7.34,7.34A7.34,7.34,0,0,0,11.59,4.26Zm0,13.48a6.14,6.14,0,1,1,6.14-6.14A6.14,6.14,0,0,1,11.59,17.74Z"/><path class="cls-2" d="M29.08,24.79h0l0,0h0l-7.38-7.45a11.6,11.6,0,1,0-4.38,4.37l7.42,7.42h0l0,0h0a3.07,3.07,0,0,0,4.34-4.34Zm-2.2,4a1.84,1.84,0,0,1-1.38-.62h0l-8-8a10.41,10.41,0,1,1,2.63-2.61l8,8h0a1.84,1.84,0,0,1,.62,1.38A1.87,1.87,0,0,1,26.88,28.8Z"/></g></g></svg>
