<svg xmlns="http://www.w3.org/2000/svg" width="26" height="37" viewBox="0 0 26 37">
  <g id="Group_397" data-name="Group 397" transform="translate(-1859 -170)">
    <g id="Rectangle_263" data-name="Rectangle 263" transform="translate(1859 170)" fill="none" stroke="#37b3a2" stroke-width="1">
      <rect width="26" height="37" rx="2" stroke="none"/>
      <rect x="0.5" y="0.5" width="25" height="36" rx="1.5" fill="none"/>
    </g>
    <g id="Rectangle_264" data-name="Rectangle 264" transform="translate(1873 173)" fill="none" stroke="#37b3a2" stroke-width="1">
      <rect width="9" height="9" stroke="none"/>
      <rect x="0.5" y="0.5" width="8" height="8" fill="none"/>
    </g>
    <g id="Rectangle_265" data-name="Rectangle 265" transform="translate(1862 173)" fill="none" stroke="#37b3a2" stroke-width="1">
      <rect width="9" height="9" stroke="none"/>
      <rect x="0.5" y="0.5" width="8" height="8" fill="none"/>
    </g>
    <g id="Rectangle_266" data-name="Rectangle 266" transform="translate(1873 184)" fill="none" stroke="#37b3a2" stroke-width="1">
      <rect width="9" height="9" stroke="none"/>
      <rect x="0.5" y="0.5" width="8" height="8" fill="none"/>
    </g>
    <g id="Rectangle_267" data-name="Rectangle 267" transform="translate(1862 184)" fill="none" stroke="#37b3a2" stroke-width="1">
      <rect width="9" height="9" stroke="none"/>
      <rect x="0.5" y="0.5" width="8" height="8" fill="none"/>
    </g>
    <g id="Rectangle_268" data-name="Rectangle 268" transform="translate(1873 195)" fill="none" stroke="#37b3a2" stroke-width="1">
      <rect width="9" height="9" stroke="none"/>
      <rect x="0.5" y="0.5" width="8" height="8" fill="none"/>
    </g>
    <g id="Rectangle_269" data-name="Rectangle 269" transform="translate(1862 195)" fill="none" stroke="#37b3a2" stroke-width="1">
      <rect width="9" height="9" stroke="none"/>
      <rect x="0.5" y="0.5" width="8" height="8" fill="none"/>
    </g>
  </g>
</svg>
